<svg class="svg-icon" style="width: 1.02734375em; height: 1em;vertical-align: middle;fill: currentColor;overflow: hidden;" viewBox="0 0 1052 1024" version="1.1" xmlns="http://www.w3.org/2000/svg"><path d="M496.981333 128c-125.525333 0-227.726222 102.172444-227.726222 227.754667 0 125.496889 102.115556 227.726222 227.726222 227.726222 125.553778 0 227.754667-102.229333 227.754667-227.726222 0-125.582222-102.200889-227.754667-227.754667-227.754667zM675.328 583.480889c-48.668444 38.4-109.283556 62.208-176.071111 62.208-66.787556 0-127.345778-23.893333-176.128-62.208-92.359111 58.680889-156.672 161.763556-165.489778 281.144889 32.341333 4.380444 89.884444 9.102222 171.975111 9.102222h339.143111c82.147556 0 139.719111-4.721778 172.088889-9.102222-8.760889-119.466667-73.045333-222.435556-165.546666-281.144889z" fill="#333333" /></svg>