<?xml version="1.0" encoding="utf-8"?>
<!-- Svg Vector Icons : http://www.onlinewebfonts.com/icon -->
<!DOCTYPE svg PUBLIC "-//W3C//DTD SVG 1.1//EN" "http://www.w3.org/Graphics/SVG/1.1/DTD/svg11.dtd">
<svg version="1.1" xmlns="http://www.w3.org/2000/svg" xmlns:xlink="http://www.w3.org/1999/xlink" x="0px" y="0px" viewBox="0 0 1000 1000" enable-background="new 0 0 1000 1000" xml:space="preserve">
<metadata> Svg Vector Icons : http://www.onlinewebfonts.com/icon </metadata>
<g><path d="M730.5,990c-63.2,0-144.9-42.1-202.2-77.5c-76.8-47.3-159.5-112.8-233-184.3l-0.3-0.3l-23.3-23.3c-71.5-73.4-137-156.2-184.3-233C52.1,414.3,10,332.7,10,269.5c0-67.7,48.4-139.5,69.2-167.2C95.4,80.6,152.1,10,200.3,10c19.8,0,41.1,12.9,69.1,42c24.8,25.7,48.5,57.6,64.1,79.9c20.9,29.9,40.3,61.2,54.5,88.1c23,43.6,25.7,62.3,25.7,72.6c0,20.7-10.8,38.7-32.2,53.4c-14.1,9.7-30.9,17-47.3,24.1c-11,4.8-28.6,12.4-35.3,17.7c2.3,9.9,12.6,33.8,40.2,74.4c25.7,37.8,59,78.8,89.1,109.6c30.9,30.1,71.8,63.4,109.6,89.1c40.6,27.6,64.5,37.8,74.4,40.2c5.3-6.7,12.9-24.3,17.7-35.3c7.1-16.3,14.4-33.2,24.1-47.3c14.7-21.4,32.7-32.2,53.4-32.2c10.3,0,29,2.7,72.6,25.7c26.9,14.2,58.2,33.6,88.1,54.5c22.3,15.6,54.2,39.3,79.9,64.1c29,28,42,49.3,42,69.1c0,48.2-70.6,104.9-92.3,121.1C870,941.6,798.2,990,730.5,990L730.5,990z M335.9,686.9c70.4,68.6,149.6,131.3,222.8,176.4c71,43.8,133.6,68.9,171.8,68.9c34,0,82.5-20.8,129.8-55.6c20.7-15.3,39.5-32.3,53.1-47.8c12.7-14.6,17.3-24.2,18.5-28c-4.9-10.5-34-43.4-101.9-90.3c-26.6-18.4-54.2-35.3-77.6-47.6c-29.4-15.4-41.6-18.1-44.4-18.5c-1.1,0.7-4.3,3.4-9.1,11.6c-5.4,9.1-10.7,21.2-15.7,32.9c-6.2,14.4-12.7,29.3-20.6,41.3c-12.8,19.5-28.6,29.4-46.9,29.5c-0.3,0-0.7,0-1,0c-8.9-0.2-35.9-0.8-109.3-50.8c-40.5-27.6-84.5-63.4-117.7-95.8l-0.5-0.5c-32.4-33.2-68.2-77.2-95.8-117.7c-50-73.4-50.6-100.5-50.8-109.3c-0.4-18.6,9.4-34.6,29.1-47.7c12.1-8,27.1-14.5,41.6-20.8c11.7-5.1,23.8-10.3,32.9-15.7c8.1-4.9,10.8-8.1,11.6-9.1c-0.4-2.8-3.1-15-18.5-44.4c-12.3-23.4-29.2-50.9-47.6-77.6c-46.9-67.9-79.8-97-90.3-101.9c-3.9,1.2-13.4,5.8-28,18.5c-15.6,13.5-32.6,32.4-47.8,53.1c-34.8,47.2-55.6,95.7-55.6,129.7c0,38.2,25.1,100.8,68.9,171.8c45.1,73.2,107.8,152.4,176.4,222.8L335.9,686.9L335.9,686.9z"/></g>
</svg>