<svg class="svg-icon" style="width: 1em; height: 1em;vertical-align: middle;fill: currentColor;overflow: hidden;" viewBox="0 0 1024 1024" version="1.1" xmlns="http://www.w3.org/2000/svg"><path d="M512.072 879.734c-203.807 0-369.613-165.806-369.613-369.608s165.806-369.613 369.613-369.613S881.684 306.32 881.684 510.126s-165.81 369.608-369.612 369.608z m0-686.976c-174.997 0-317.364 142.366-317.364 317.363s142.367 317.358 317.364 317.358 317.363-142.367 317.363-317.358-142.372-317.363-317.363-317.363z" fill="#2C2C2C" /><path d="M644.45 676.87a26.05 26.05 0 0 1-18.474-7.65L493.6 536.847a26.127 26.127 0 0 1-7.655-18.473V300.877a26.127 26.127 0 0 1 52.255 0v206.669l124.728 124.718a26.138 26.138 0 0 1-18.478 44.605z" fill="#2C2C2C" /></svg>