<svg class="svg-icon" style="width: 1em; height: 1em;vertical-align: middle;fill: currentColor;overflow: hidden;" viewBox="0 0 1024 1024" version="1.1" xmlns="http://www.w3.org/2000/svg"><path d="M384 469.333333h-85.333333v85.333334h85.333333v-85.333334z m170.666667 0h-85.333334v85.333334h85.333334v-85.333334z m170.666666 0h-85.333333v85.333334h85.333333v-85.333334z m85.333334-298.666666h-42.666667V85.333333h-85.333333v85.333334H341.333333V85.333333h-85.333333v85.333334h-42.666667c-47.36 0-84.906667 38.4-84.906666 85.333333L128 853.333333c0 46.933333 37.973333 85.333333 85.333333 85.333334h597.333334c46.933333 0 85.333333-38.4 85.333333-85.333334V256c0-46.933333-38.4-85.333333-85.333333-85.333333z m0 682.666666H213.333333V384h597.333334v469.333333z"  /></svg>