<svg width="73" height="100" viewBox="0 0 73 100" fill="none" xmlns="http://www.w3.org/2000/svg">
<g clip-path="url(#clip0_2_40)">
<mask id="mask0_2_40" style="mask-type:alpha" maskUnits="userSpaceOnUse" x="-1" y="0" width="72" height="99">
<path d="M43.8232 0H5.72348C2.02557 0 -1 3.02557 -1 6.72348V91.8876C-1 95.5855 2.02557 98.6111 5.72348 98.6111H63.9937C67.6916 98.6111 70.7172 95.5855 70.7172 91.8876V26.8939L43.8232 0Z" fill="white"/>
</mask>
<g mask="url(#mask0_2_40)">
<path d="M43.8232 0H5.72348C2.02557 0 -1 3.02557 -1 6.72348V91.8876C-1 95.5855 2.02557 98.6111 5.72348 98.6111H63.9937C67.6916 98.6111 70.7172 95.5855 70.7172 91.8876V26.8939L55.029 15.6881L43.8232 0Z" fill="#673AB7"/>
</g>
<mask id="mask1_2_40" style="mask-type:alpha" maskUnits="userSpaceOnUse" x="-1" y="0" width="72" height="99">
<path d="M43.8232 0H5.72348C2.02557 0 -1 3.02557 -1 6.72348V91.8876C-1 95.5855 2.02557 98.6111 5.72348 98.6111H63.9937C67.6916 98.6111 70.7172 95.5855 70.7172 91.8876V26.8939L43.8232 0Z" fill="white"/>
</mask>
<g mask="url(#mask1_2_40)">
<path d="M28.1351 76.1995H52.7879V71.7172H28.1351V76.1995ZM28.1351 49.3056V53.7879H52.7879V49.3056H28.1351ZM22.5322 51.5467C22.5322 53.4013 21.025 54.9085 19.1705 54.9085C17.3159 54.9085 15.8087 53.4013 15.8087 51.5467C15.8087 49.6922 17.3159 48.185 19.1705 48.185C21.025 48.185 22.5322 49.6922 22.5322 51.5467ZM22.5322 62.7525C22.5322 64.6071 21.025 66.1143 19.1705 66.1143C17.3159 66.1143 15.8087 64.6071 15.8087 62.7525C15.8087 60.898 17.3159 59.3908 19.1705 59.3908C21.025 59.3908 22.5322 60.898 22.5322 62.7525ZM22.5322 73.9583C22.5322 75.8129 21.025 77.3201 19.1705 77.3201C17.3159 77.3201 15.8087 75.8129 15.8087 73.9583C15.8087 72.1038 17.3159 70.5966 19.1705 70.5966C21.025 70.5966 22.5322 72.1038 22.5322 73.9583ZM28.1351 64.9937H52.7879V60.5114H28.1351V64.9937Z" fill="#F1F1F1"/>
</g>
<mask id="mask2_2_40" style="mask-type:alpha" maskUnits="userSpaceOnUse" x="-1" y="0" width="72" height="99">
<path d="M43.8232 0H5.72348C2.02557 0 -1 3.02557 -1 6.72348V91.8876C-1 95.5855 2.02557 98.6111 5.72348 98.6111H63.9937C67.6916 98.6111 70.7172 95.5855 70.7172 91.8876V26.8939L43.8232 0Z" fill="white"/>
</mask>
<g mask="url(#mask2_2_40)">
<path d="M45.7898 24.9273L70.7172 49.849V26.8939L45.7898 24.9273Z" fill="url(#paint0_linear_2_40)"/>
</g>
<mask id="mask3_2_40" style="mask-type:alpha" maskUnits="userSpaceOnUse" x="-1" y="0" width="72" height="99">
<path d="M43.8232 0H5.72348C2.02557 0 -1 3.02557 -1 6.72348V91.8876C-1 95.5855 2.02557 98.6111 5.72348 98.6111H63.9937C67.6916 98.6111 70.7172 95.5855 70.7172 91.8876V26.8939L43.8232 0Z" fill="white"/>
</mask>
<g mask="url(#mask3_2_40)">
<path d="M43.8232 0V20.1705C43.8232 23.8852 46.832 26.8939 50.5467 26.8939H70.7172L43.8232 0Z" fill="#B39DDB"/>
</g>
<mask id="mask4_2_40" style="mask-type:alpha" maskUnits="userSpaceOnUse" x="-1" y="0" width="72" height="99">
<path d="M43.8232 0H5.72348C2.02557 0 -1 3.02557 -1 6.72348V91.8876C-1 95.5855 2.02557 98.6111 5.72348 98.6111H63.9937C67.6916 98.6111 70.7172 95.5855 70.7172 91.8876V26.8939L43.8232 0Z" fill="white"/>
</mask>
<g mask="url(#mask4_2_40)">
<path d="M5.72348 0C2.02557 0 -1 3.02557 -1 6.72348V7.28377C-1 3.58586 2.02557 0.56029 5.72348 0.56029H43.8232V0H5.72348Z" fill="white" fill-opacity="0.2"/>
</g>
<mask id="mask5_2_40" style="mask-type:alpha" maskUnits="userSpaceOnUse" x="-1" y="0" width="72" height="99">
<path d="M43.8232 0H5.72348C2.02557 0 -1 3.02557 -1 6.72348V91.8876C-1 95.5855 2.02557 98.6111 5.72348 98.6111H63.9937C67.6916 98.6111 70.7172 95.5855 70.7172 91.8876V26.8939L43.8232 0Z" fill="white"/>
</mask>
<g mask="url(#mask5_2_40)">
<path d="M64.9937 98.0508H6.72348C3.02557 98.0508 0 95.0253 0 91.3273V91.8876C0 95.5855 3.02557 98.6111 6.72348 98.6111H64.9937C68.6916 98.6111 71.7172 95.5855 71.7172 91.8876V91.3273C71.7172 95.0253 68.6916 98.0508 64.9937 98.0508Z" fill="#311B92" fill-opacity="0.2"/>
<mask id="mask6_2_40" style="mask-type:alpha" maskUnits="userSpaceOnUse" x="-1" y="0" width="72" height="99">
<path d="M43.8232 0H5.72348C2.02557 0 -1 3.02557 -1 6.72348V91.8876C-1 95.5855 2.02557 98.6111 5.72348 98.6111H63.9937C67.6916 98.6111 70.7172 95.5855 70.7172 91.8876V26.8939L43.8232 0Z" fill="white"/>
</mask>
<g mask="url(#mask6_2_40)">
<path d="M50.5467 26.8939C46.832 26.8939 43.8232 23.8852 43.8232 20.1705V20.7307C43.8232 24.4455 46.832 27.4542 50.5467 27.4542H70.7172V26.8939H50.5467Z" fill="#311B92" fill-opacity="0.1"/>
<path d="M43.8232 0H5.72348C2.02557 0 -1 3.02557 -1 6.72348V91.8876C-1 95.5855 2.02557 98.6111 5.72348 98.6111H63.9937C67.6916 98.6111 70.7172 95.5855 70.7172 91.8876V26.8939L43.8232 0Z" fill="url(#paint1_radial_2_40)"/>
</g>
</g>
</g>
<defs>
<linearGradient id="paint0_linear_2_40" x1="58.2549" y1="27.0672" x2="58.2549" y2="49.8525" gradientUnits="userSpaceOnUse">
<stop stop-color="#311B92" stop-opacity="0.2"/>
<stop offset="1" stop-color="#311B92" stop-opacity="0.02"/>
</linearGradient>
<radialGradient id="paint1_radial_2_40" cx="0" cy="0" r="1" gradientUnits="userSpaceOnUse" gradientTransform="translate(1.27204 1.9601) scale(115.643)">
<stop stop-color="white" stop-opacity="0.1"/>
<stop offset="1" stop-color="white" stop-opacity="0"/>
</radialGradient>
<clipPath id="clip0_2_40">
<rect width="73" height="100" fill="white"/>
</clipPath>
</defs>
</svg>
